<svg width="338" height="338" viewBox="0 0 338 338" fill="none" xmlns="http://www.w3.org/2000/svg">
<path fill-rule="evenodd" clip-rule="evenodd" d="M169 0C75.6275 0 0 75.6275 0 169C0 243.782 48.3762 306.946 115.554 329.339C124.004 330.818 127.172 325.748 127.172 321.311C127.172 317.298 126.961 303.989 126.961 289.835C84.5 297.651 73.515 279.484 70.135 269.977C68.2337 265.119 59.995 250.12 52.8125 246.106C46.8975 242.937 38.4475 235.121 52.6013 234.91C65.91 234.699 75.4163 247.162 78.585 252.232C93.795 277.794 118.089 270.611 127.806 266.175C129.285 255.19 133.721 247.796 138.58 243.571C100.977 239.346 61.685 224.77 61.685 160.127C61.685 141.749 68.2338 126.539 79.0075 114.709C77.3175 110.484 71.4025 93.1612 80.6975 69.9237C80.6975 69.9237 94.8513 65.4875 127.172 87.2463C140.692 83.4438 155.058 81.5425 169.423 81.5425C183.788 81.5425 198.153 83.4438 211.673 87.2463C243.994 65.2763 258.148 69.9237 258.148 69.9237C267.443 93.1612 261.528 110.484 259.838 114.709C270.611 126.539 277.16 141.537 277.16 160.127C277.16 224.981 237.656 239.346 200.054 243.571C206.18 248.852 211.461 258.993 211.461 274.836C211.461 297.44 211.25 315.608 211.25 321.311C211.25 325.748 214.419 331.029 222.869 329.339C256.418 318.013 285.571 296.451 306.225 267.688C326.878 238.925 337.991 204.41 338 169C338 75.6275 262.373 0 169 0Z" fill="black"/>
</svg>
